<?xml version="1.0" encoding="utf-8"?>
<!-- Generator: Adobe Illustrator 19.0.0, SVG Export Plug-In . SVG Version: 6.00 Build 0)  -->
<svg version="1.1" id="Layer_1" xmlns="http://www.w3.org/2000/svg" xmlns:xlink="http://www.w3.org/1999/xlink" x="0px" y="0px"
	 viewBox="0 0 162.8 31.8" style="enable-background:new 0 0 162.8 31.8;" xml:space="preserve">
<g id="XMLID_19_">
	<path id="XMLID_23_" d="M1.1,30.5l11.3-15.3L1.6,1.9h10.6l6.6,9.5V1.9h8.7v9.5l6.6-9.5h10.6L33.9,15.2l11.3,15.3H34.7l-6.4-10.1
		l-0.7,1v9.1h-8.7v-9.1l-0.7-1l-6.4,10.1H1.1z"/>
	<path id="XMLID_26_" d="M48.4,30.5V1.9h8.7v15.3L67,1.9H76v28.6h-8.7V14.3L56.8,30.5H48.4z"/>
	<path id="XMLID_28_" d="M88.4,30.5v-21h-7.7V1.9h24v7.5h-7.6v21H88.4z"/>
	<path id="XMLID_30_" d="M115.6,30.5v-21H108V1.9h24v7.5h-7.6v21H115.6z"/>
	<path id="XMLID_33_" d="M135.6,30.5l5.2-10.1c-2.3-1.1-5.1-3.7-5.1-8.7c0-5.4,3.6-9.8,10.3-9.8h15.3v28.6h-8.7v-9h-3.1l-3.9,9
		H135.6z M152.5,14V9.5h-5.3c-1.5,0-2.8,0.7-2.8,2.2c0,1.6,1.4,2.3,2.8,2.3H152.5z"/>
</g>
</svg>
