<?xml version="1.0" encoding="utf-8"?>
<!-- Generator: Adobe Illustrator 19.0.0, SVG Export Plug-In . SVG Version: 6.00 Build 0)  -->
<svg version="1.1" id="Layer_1" xmlns="http://www.w3.org/2000/svg" xmlns:xlink="http://www.w3.org/1999/xlink" x="0px" y="0px"
	 viewBox="0 0 20.7 21.2" style="enable-background:new 0 0 20.7 21.2;" xml:space="preserve">
<style type="text/css">
	.st0{fill:#010101;}
</style>
<path id="XMLID_73_" class="st0" d="M18.1,19.2c-1-1.4-2.4-2-4.5-2c-0.5,0-1.2-0.5-1.2-1v-1.9c2.2-0.6,3.9-2.1,4.6-3.4
	c0.1-0.2,0.1-0.4-0.1-0.5l-2.2-2.8c0-1.2,0-2.8-0.5-4.1c-0.7-1.7-2-2.6-4-2.6s-3.3,0.9-4,2.6C5.6,4.8,5.6,6.4,5.6,7.6l-2.2,2.8
	c-0.1,0.2-0.1,0.4-0.1,0.5c0.7,1.5,2.6,3,5,3.5v1.8c0,0.5-0.9,1-1.5,1c-2,0-3.3,0.6-4.3,2c-0.2,0.2-0.1,0.5,0.1,0.7
	c0.1,0.1,0.2,0.1,0.3,0.1c0.2,0,0.3-0.1,0.4-0.2c0.6-0.8,1.4-1.6,3.5-1.6c1.1,0,2.5-0.9,2.5-2v-1.6c0.3,0,0.5,0.1,0.8,0.1
	c0.4,0,0.8,0,1.2-0.1v1.6c0,1.1,1.2,2,2.2,2c1.7,0,2.9,0.5,3.7,1.6c0.1,0.1,0.3,0.2,0.4,0.2c0.1,0,0.2,0,0.3-0.1
	C18.2,19.7,18.2,19.4,18.1,19.2z M4.4,10.7l2-2.6c0.1-0.1,0-0.2,0-0.3V7.6c0-1.1,0.1-2.6,0.5-3.8c0.5-1.3,1.6-1.9,3.1-1.9
	s2.5,0.6,3,1.9c0.5,1.2,0.3,2.7,0.3,3.8v0.1c0,0.1,0.2,0.2,0.3,0.3l2.3,2.6c-0.8,1.3-2.8,2.9-5.8,2.9C7.2,13.6,5.2,12,4.4,10.7z"/>
</svg>
