<?xml version="1.0" encoding="utf-8"?>
<!-- Generator: Adobe Illustrator 19.0.0, SVG Export Plug-In . SVG Version: 6.00 Build 0)  -->
<svg version="1.1" id="Layer_1" xmlns="http://www.w3.org/2000/svg" xmlns:xlink="http://www.w3.org/1999/xlink" x="0px" y="0px"
	 viewBox="0 0 561 286" style="enable-background:new 0 0 561 286;" xml:space="preserve">
<style type="text/css">
	.st0{fill:#FFFFFF;}
</style>
<g id="XMLID_2_">
	<path id="XMLID_24_" class="st0" d="M158.4,191.4c-9,0-13,7.4-13,23.2c0,15.8,4.1,23.4,13,23.4s13-7.6,13-23.4
		C171.4,198.8,167.3,191.4,158.4,191.4z"/>
	<polygon id="XMLID_25_" class="st0" points="67.2,221.6 67.2,192.2 49.6,221.6 	"/>
	<polygon id="XMLID_26_" class="st0" points="255.4,221.6 255.4,192.2 237.7,221.6 	"/>
	<path id="XMLID_29_" class="st0" d="M0,0v286h561V0H0z M171.8,17.8h28.3v49.8l32.5-49.8h29.1v93.4h-28.3V58.3L199,111.2h-27.2V17.8
		z M18.8,17.8h34.6l21.7,31.1V17.8h28.3v31.1L125,17.8h34.6l-35.3,43.4l36.8,50h-34.4l-21-32.9l-2.4,3.2v29.7H75.1V81.5l-2.4-3.2
		l-21,32.9H17.2l36.8-50L18.8,17.8z M106.3,246.2H95.5v15H67.2v-15H22.3v-21.7l34-56.7h39.2v53.8h10.8V246.2z M158.4,262.9
		c-27.9,0-41.4-23-41.4-48.3s13.6-48.2,41.4-48.2s41.4,22.8,41.4,48.2S186.2,262.9,158.4,262.9z M294.4,246.2h-10.8v15h-28.3v-15
		h-44.9v-21.7l34-56.7h39.2v53.8h10.8V246.2z M355.6,42.5h-24.9v68.7h-28.3V42.5h-25.1V17.8h78.3V42.5z M444.5,42.5h-24.9v68.7
		h-28.3V42.5h-25.1V17.8h78.3V42.5z M540,111.2h-28.3V81.8h-10.2l-12.9,29.4h-32.2l16.9-33c-7.4-3.6-16.8-12.2-16.8-28.3
		c0-17.5,11.8-32.1,33.6-32.1H540V111.2z"/>
	<path id="XMLID_37_" class="st0" d="M485.3,49.8c0,5.2,4.5,7.4,9.2,7.4h17.2V42.5h-17.2C489.7,42.5,485.3,44.7,485.3,49.8z"/>
</g>
</svg>
