<?xml version="1.0" encoding="utf-8"?>
<!-- Generator: Adobe Illustrator 19.0.0, SVG Export Plug-In . SVG Version: 6.00 Build 0)  -->
<svg version="1.1" id="Layer_1" xmlns="http://www.w3.org/2000/svg" xmlns:xlink="http://www.w3.org/1999/xlink" x="0px" y="0px"
	 viewBox="0 0 20.7 21.2" style="enable-background:new 0 0 20.7 21.2;" xml:space="preserve">
<style type="text/css">
	.st0{fill:#fff;}
</style>
<path id="XMLID_83_" class="st0" d="M17.9,17.6l-6.2-2.7c-0.5,0.1-1,0.1-1.5,0.1c-4.4,0-8-2.6-8-5.9c0-3.2,3.6-5.9,8-5.9
	c4.4,0,8,2.6,8,5.9c0,1.1-0.4,2.1-1.2,3.1L17.9,17.6z M11.8,13.9l4.8,2.1l-0.7-4l0.2-0.2c0.7-0.8,1.1-1.7,1.1-2.6
	c0-2.7-3.1-4.9-7-4.9c-3.9,0-7,2.2-7,4.9c0,2.7,3.1,4.9,7,4.9c0.5,0,1,0,1.5-0.1L11.8,13.9z"/>
</svg>
