<?xml version="1.0" encoding="utf-8"?>
<!-- Generator: Adobe Illustrator 15.1.0, SVG Export Plug-In . SVG Version: 6.00 Build 0)  -->
<!DOCTYPE svg PUBLIC "-//W3C//DTD SVG 1.1//EN" "http://www.w3.org/Graphics/SVG/1.1/DTD/svg11.dtd">
<svg version="1.1" id="Слой_1" xmlns="http://www.w3.org/2000/svg" xmlns:xlink="http://www.w3.org/1999/xlink" x="0px" y="0px"
	 width="297.5px" height="53px" viewBox="0 0 297.5 53" enable-background="new 0 0 297.5 53" xml:space="preserve">
<g id="Слой_x0020_1">
	<g>
		<path fill="#1A1A1A" d="M39.75,39.613c-0.398,0-0.663-0.198-0.862-0.596c-0.166-0.397-0.265-0.895-0.331-1.523
			c-0.033-0.597-0.066-1.259-0.066-2.021c0-0.728-0.033-1.457-0.066-2.152c-0.099-1.393-0.397-2.518-0.895-3.313
			c-0.463-0.828-0.993-1.458-1.589-1.855c-0.596-0.431-1.192-0.695-1.789-0.828c-0.596-0.133-1.027-0.198-1.392-0.198l-0.033-0.167
			c0.53-0.396,0.862-0.926,1.061-1.557c0.165-0.629,0.298-1.623,0.331-2.98c0.033-0.498,0.066-1.061,0.066-1.723
			c0.033-0.662,0.066-1.326,0.132-1.922c0.099-0.596,0.231-1.126,0.398-1.523c0.199-0.432,0.43-0.63,0.795-0.63
			c0.198,0,0.297,0.066,0.331,0.232c0.034,0.133,0.034,0.298,0.034,0.464c0,0.199,0,0.364-0.067,0.529
			c-0.066,0.133-0.099,0.299-0.165,0.464c0,0.132-0.033,0.233-0.033,0.331c0,0.101,0,0.232,0,0.332c0,0.563,0.166,1.094,0.53,1.623
			c0.365,0.531,0.928,0.795,1.69,0.795c0.795,0,1.391-0.299,1.789-0.928c0.43-0.663,0.629-1.391,0.629-2.22
			c0-0.331-0.066-0.696-0.166-1.093c-0.132-0.397-0.298-0.762-0.563-1.094c-0.232-0.331-0.563-0.595-0.994-0.827
			c-0.397-0.232-0.928-0.332-1.524-0.332c-0.662,0-1.226,0.1-1.689,0.299c-0.431,0.231-0.829,0.595-1.093,1.192
			c-0.298,0.563-0.497,1.325-0.663,2.318c-0.166,0.961-0.265,2.186-0.331,3.711c0,1.027-0.1,1.854-0.232,2.451
			c-0.166,0.596-0.331,1.059-0.596,1.358c-0.231,0.298-0.53,0.496-0.861,0.596c-0.298,0.065-0.696,0.101-1.093,0.101h-1.458V16.061
			h2.319v-0.86h-7.95h-0.828h-5.002v0.86h0.364c0.1,0,0.232,0,0.431,0.034c0.198,0,0.397,0.066,0.596,0.199
			c0.232,0.099,0.431,0.298,0.596,0.529c0.133,0.265,0.232,0.596,0.232,1.093c0,0.1-0.033,0.365-0.066,0.795
			c-0.033,0.398-0.199,1.093-0.497,2.088l-2.75,9.938l-5.101-14.677h2.054v-0.86H4.934v0.86h1.722l7.387,21.102
			c-0.232,0.729-0.497,1.259-0.795,1.657c-0.265,0.363-0.563,0.695-0.828,0.894c-0.265,0.199-0.53,0.331-0.795,0.397
			c-0.265,0.033-0.497,0.066-0.695,0.066c-0.663,0-1.193-0.133-1.491-0.397c-0.331-0.265-0.497-0.497-0.497-0.729
			c0-0.133,0.066-0.231,0.166-0.331c0.132-0.1,0.265-0.166,0.431-0.266c0.132-0.066,0.297-0.165,0.463-0.231
			c0.166-0.066,0.331-0.166,0.463-0.265c0.2-0.166,0.431-0.431,0.663-0.796c0.232-0.363,0.331-0.828,0.331-1.456
			c0-0.895-0.231-1.591-0.695-2.089c-0.498-0.495-1.027-0.761-1.624-0.761c-0.663,0-1.259,0.266-1.789,0.828
			c-0.529,0.563-0.794,1.325-0.794,2.317c0,0.663,0.132,1.327,0.331,1.923c0.232,0.629,0.53,1.159,0.928,1.59
			c0.397,0.463,0.862,0.828,1.391,1.094c0.53,0.297,1.093,0.43,1.723,0.43c0.729,0,1.358-0.199,1.888-0.563
			c0.53-0.365,0.994-0.862,1.392-1.458c0.397-0.63,0.762-1.392,1.06-2.219c0.298-0.862,0.596-1.789,0.928-2.783l4.438-14.873
			c0.166-0.631,0.431-1.193,0.762-1.756c0.298-0.53,0.96-0.994,1.954-1.326h1.425v23.785h-2.253v0.861h8.778v-0.861h-2.319V27.788
			h1.69c0.728,0,1.292,0.165,1.689,0.463c0.397,0.332,0.695,0.729,0.927,1.26c0.199,0.53,0.332,1.16,0.431,1.821
			c0.066,0.662,0.132,1.392,0.166,2.121c0.133,1.457,0.232,2.682,0.364,3.643s0.331,1.724,0.563,2.287
			c0.232,0.563,0.563,0.96,0.993,1.191c0.431,0.265,0.961,0.397,1.69,0.464c0.232,0.033,0.497,0.033,0.762,0
			c0.298-0.066,0.662-0.165,1.16-0.331c0.497-0.165,0.96-0.464,1.357-0.861l-0.331-0.563C40.213,39.515,39.981,39.613,39.75,39.613z
			"/>
		<path fill="#1A1A1A" d="M78.01,12.318c0.298-0.365,0.463-0.828,0.463-1.424c0-0.498-0.066-0.862-0.265-1.126
			c-0.166-0.265-0.398-0.464-0.629-0.563c-0.231-0.132-0.431-0.199-0.663-0.232c-0.199,0-0.332-0.033-0.431-0.033
			c-0.033,0-0.166,0.033-0.397,0.033c-0.232,0.034-0.464,0.1-0.697,0.232c-0.231,0.099-0.43,0.298-0.629,0.563
			c-0.199,0.265-0.298,0.629-0.298,1.126c0,0.563,0.166,1.026,0.53,1.424c0.331,0.364,0.828,0.563,1.491,0.563
			C77.181,12.881,77.678,12.683,78.01,12.318z"/>
		<polygon fill="#1A1A1A" points="75.293,16.061 77.579,16.061 77.579,39.846 75.293,39.846 75.293,40.707 84.105,40.707 
			84.105,39.846 81.786,39.846 81.786,16.061 84.105,16.061 84.105,15.201 75.293,15.201 		"/>
		<path fill="#1A1A1A" d="M84.005,9.205c-0.232-0.132-0.463-0.199-0.663-0.232c-0.231,0-0.364-0.033-0.43-0.033
			c-0.033,0-0.166,0.033-0.397,0.033c-0.231,0.034-0.463,0.1-0.695,0.232c-0.232,0.099-0.431,0.298-0.629,0.563
			c-0.199,0.265-0.298,0.629-0.298,1.126c0,0.563,0.166,1.026,0.497,1.424c0.365,0.364,0.861,0.563,1.524,0.563
			c0.696,0,1.193-0.199,1.524-0.563c0.332-0.365,0.497-0.828,0.497-1.424c0-0.498-0.099-0.862-0.266-1.126
			C84.469,9.503,84.237,9.304,84.005,9.205z"/>
		<path fill="#1A1A1A" d="M57.968,19.539c-0.265-0.86-0.729-1.59-1.358-2.252c-0.63-0.629-1.491-1.125-2.551-1.522
			c-1.06-0.365-2.385-0.563-3.975-0.563h-8.58v0.86h2.285v23.785h-2.285v0.861h9.076v-0.861h-2.583V29.808h1.954
			c2.783,0,4.903-0.563,6.294-1.755c1.392-1.16,2.12-3.113,2.12-5.83C58.366,21.296,58.233,20.4,57.968,19.539z M53.596,23.316
			c0,1.358-0.099,2.386-0.298,3.146c-0.199,0.762-0.497,1.325-0.862,1.689c-0.364,0.397-0.828,0.597-1.358,0.696
			c-0.53,0.065-1.093,0.099-1.723,0.099h-1.358V16.061h1.623c0.928,0,1.623,0.133,2.187,0.332c0.53,0.232,0.927,0.531,1.192,0.928
			c0.265,0.397,0.431,0.861,0.497,1.39c0.066,0.563,0.099,1.159,0.099,1.822V23.316z"/>
		<path fill="#1A1A1A" d="M290.943,39.846l-6.326-24.944h-1.791l-5.266,20.606c-0.133,0.561-0.299,1.091-0.432,1.623
			c-0.131,0.495-0.299,0.96-0.496,1.356c-0.199,0.398-0.465,0.729-0.795,0.961c-0.33,0.265-0.762,0.397-1.26,0.397h-2.814V16.061
			h2.252v-0.86h-15.834v0.86c0.828-0.066,1.457,0.034,1.855,0.332c0.396,0.265,0.66,0.695,0.793,1.259s0.168,1.226,0.168,2.055
			c-0.035,0.794-0.066,1.655-0.1,2.583l-0.332,10.137c-0.066,1.755-0.266,3.214-0.563,4.373c-0.332,1.126-0.762,2.153-1.227,3.047
			h-2.418l-0.33,8.215h1.092c0.232-1.723,0.563-3.08,0.928-4.041c0.396-0.994,0.828-1.723,1.293-2.22
			c0.463-0.496,0.959-0.795,1.488-0.895c0.531-0.132,0.996-0.198,1.492-0.198h5.633c0.396,0,0.859,0.066,1.424,0.198
			c0.596,0.1,1.158,0.398,1.756,0.895c0.563,0.497,1.125,1.226,1.621,2.22c0.465,0.961,0.828,2.318,1.061,4.041h1.094l-0.238-7.354
			h6.102v-0.861c-0.695-0.066-1.227-0.166-1.59-0.331c-0.398-0.132-0.695-0.497-0.863-1.061c-0.098-0.265-0.131-0.529-0.098-0.762
			c0-0.265,0.031-0.53,0.098-0.795c0.135-0.794,0.201-1.292,0.234-1.524c0.033-0.198,0.066-0.331,0.098-0.43l0.432-1.657h5.697
			l1.756,6.56h-2.219v0.861h8.248v-0.861H290.943z M267.557,39.846h-7.752c0.199-0.331,0.363-0.729,0.563-1.158
			c0.166-0.432,0.33-0.962,0.498-1.525c0.164-0.596,0.264-1.258,0.363-2.02c0.1-0.763,0.166-1.689,0.232-2.717l0.463-11.793
			c0.035-1.16,0.133-2.055,0.232-2.684c0.098-0.628,0.232-1.093,0.432-1.358c0.197-0.266,0.465-0.43,0.795-0.464
			c0.33-0.032,0.729-0.066,1.227-0.066h2.947V39.846z M279.25,32.426l2.717-10.601l2.682,10.601H279.25z"/>
		<path fill="#1A1A1A" d="M66.813,14.901h-1.79l-5.267,20.606c-0.166,0.561-0.298,1.091-0.431,1.623
			c-0.132,0.495-0.298,0.96-0.497,1.356c-0.232,0.398-0.497,0.729-0.795,0.961c-0.331,0.265-0.762,0.397-1.292,0.397v0.861h6.194
			v-0.861c-0.662-0.066-1.192-0.166-1.59-0.331c-0.397-0.132-0.662-0.497-0.861-1.061c-0.066-0.265-0.1-0.529-0.1-0.762
			c0.033-0.265,0.066-0.53,0.1-0.795c0.133-0.794,0.232-1.292,0.266-1.524c0.033-0.198,0.066-0.331,0.099-0.43l0.431-1.657h5.665
			l1.756,6.56h-2.22v0.861h8.249v-0.861h-1.623L66.813,14.901z M61.414,32.426l2.75-10.601l2.684,10.601H61.414z"/>
		<polygon fill="#1A1A1A" points="185.172,16.061 187.457,16.061 187.457,39.846 185.172,39.846 185.172,40.707 193.586,40.707 
			193.586,39.846 191.664,39.846 191.664,16.061 198.059,16.061 198.059,39.846 196.137,39.846 196.137,40.707 204.551,40.707 
			204.551,39.846 202.264,39.846 202.264,16.061 204.551,16.061 204.551,15.201 185.172,15.201 		"/>
		<path fill="#1A1A1A" d="M254.936,29.939c-0.432-0.627-1.061-1.224-1.887-1.787c-0.83-0.596-1.957-1.061-3.348-1.457l-0.033-0.199
			c1.789-0.432,3.18-1.094,4.207-1.988s1.557-2.219,1.557-3.908c0-0.729-0.133-1.424-0.396-2.088
			c-0.232-0.662-0.664-1.225-1.26-1.722c-0.596-0.464-1.391-0.862-2.352-1.159c-0.961-0.265-2.186-0.43-3.678-0.43h-8.678v0.86
			h2.252v23.785h-1.988h-0.264h-1.359l-6.326-24.944h-1.789l-5.234,20.606c-0.164,0.561-0.33,1.091-0.43,1.623
			c-0.135,0.495-0.299,0.96-0.531,1.356c-0.199,0.398-0.463,0.729-0.793,0.961c-0.332,0.265-0.73,0.397-1.26,0.397v0.861h6.193
			v-0.861c-0.662-0.066-1.227-0.166-1.588-0.331c-0.398-0.132-0.697-0.497-0.863-1.061c-0.098-0.265-0.098-0.529-0.098-0.762
			c0-0.265,0.031-0.53,0.098-0.795c0.133-0.794,0.199-1.292,0.232-1.524c0.066-0.198,0.1-0.331,0.1-0.43l0.43-1.657h5.699
			l1.756,6.56h-2.221v0.861h7.984h0.264h8.58c1.193,0,2.287-0.165,3.279-0.464c0.994-0.331,1.857-0.795,2.551-1.424
			c0.695-0.63,1.26-1.392,1.623-2.286c0.398-0.894,0.598-1.921,0.598-3.049c0-0.495-0.066-1.059-0.199-1.688
			S255.365,30.57,254.936,29.939z M226.018,32.426l2.715-10.601l2.684,10.601H226.018z M245.527,16.061h2.154
			c0.76,0,1.357,0.167,1.787,0.464c0.396,0.332,0.695,0.695,0.895,1.094c0.199,0.396,0.332,0.795,0.332,1.191
			c0.033,0.365,0.033,0.662,0.033,0.829v2.616c0,0.928-0.133,1.656-0.432,2.154c-0.297,0.529-0.629,0.893-1.027,1.158
			c-0.396,0.231-0.762,0.363-1.125,0.398c-0.332,0.066-0.563,0.066-0.662,0.066h-1.955V16.061z M251.227,34.91
			c0,0.629-0.035,1.225-0.1,1.822c-0.066,0.597-0.234,1.126-0.498,1.589c-0.266,0.465-0.662,0.829-1.16,1.127
			c-0.529,0.265-1.258,0.397-2.186,0.397h-1.756V26.893h2.088c0.861,0,1.49,0.199,1.986,0.564c0.465,0.331,0.828,0.794,1.061,1.357
			c0.23,0.529,0.398,1.125,0.465,1.756c0.064,0.596,0.1,1.159,0.1,1.657V34.91z"/>
		<path fill="#1A1A1A" d="M214.92,29.808c2.814,0,4.902-0.563,6.293-1.755c1.424-1.16,2.119-3.113,2.119-5.83
			c0-0.927-0.133-1.822-0.396-2.684c-0.266-0.86-0.697-1.59-1.324-2.252c-0.664-0.629-1.492-1.125-2.551-1.522
			c-1.061-0.365-2.385-0.563-3.977-0.563h-8.611v0.86h2.283v23.785h-2.283v0.861h9.076v-0.861h-2.584V29.808H214.92z
			 M212.965,16.061h1.656c0.895,0,1.623,0.133,2.152,0.332c0.531,0.232,0.928,0.531,1.193,0.928c0.297,0.397,0.463,0.861,0.529,1.39
			c0.066,0.563,0.1,1.159,0.1,1.822v2.783c0,1.358-0.131,2.386-0.332,3.146c-0.197,0.762-0.496,1.325-0.861,1.689
			c-0.363,0.397-0.793,0.597-1.324,0.696c-0.529,0.065-1.127,0.099-1.756,0.099h-1.357V16.061z"/>
		<path fill="#1A1A1A" d="M168.443,14.901h-1.822l-5.234,20.606c-0.166,0.561-0.297,1.091-0.43,1.623
			c-0.133,0.495-0.297,0.96-0.496,1.356c-0.232,0.398-0.498,0.729-0.797,0.961c-0.096,0.077-0.217,0.118-0.332,0.173l-0.197-0.339
			c-0.232,0.232-0.463,0.331-0.729,0.331c-0.365,0-0.662-0.198-0.828-0.596s-0.266-0.895-0.332-1.523
			c-0.031-0.597-0.064-1.259-0.064-2.021c0-0.728-0.033-1.457-0.066-2.152c-0.133-1.393-0.398-2.518-0.896-3.313
			c-0.463-0.828-1.025-1.458-1.621-1.855c-0.598-0.431-1.193-0.695-1.756-0.828c-0.598-0.133-1.061-0.198-1.393-0.198l-0.033-0.167
			c0.531-0.396,0.861-0.926,1.061-1.557c0.166-0.629,0.299-1.623,0.332-2.98c0.033-0.498,0.066-1.061,0.066-1.723
			s0.064-1.326,0.131-1.922s0.199-1.126,0.398-1.523c0.166-0.432,0.43-0.63,0.762-0.63c0.232,0,0.332,0.066,0.365,0.232
			c0.031,0.133,0.031,0.298,0.031,0.464c0,0.199-0.031,0.364-0.064,0.529c-0.066,0.133-0.1,0.299-0.166,0.464
			c-0.033,0.132-0.033,0.233-0.033,0.331c0,0.101,0,0.232,0,0.332c0,0.563,0.166,1.094,0.529,1.623
			c0.332,0.531,0.895,0.795,1.691,0.795c0.762,0,1.357-0.299,1.787-0.928c0.398-0.663,0.629-1.391,0.629-2.22
			c0-0.331-0.066-0.696-0.197-1.093c-0.1-0.397-0.299-0.762-0.531-1.094c-0.232-0.331-0.563-0.595-0.992-0.827
			c-0.4-0.232-0.93-0.332-1.525-0.332c-0.662,0-1.225,0.1-1.689,0.299c-0.463,0.231-0.828,0.595-1.092,1.192
			c-0.299,0.563-0.531,1.325-0.664,2.318c-0.164,0.961-0.266,2.186-0.33,3.711c-0.033,1.027-0.1,1.854-0.232,2.451
			c-0.166,0.596-0.363,1.059-0.596,1.358c-0.266,0.298-0.531,0.496-0.861,0.596c-0.332,0.065-0.697,0.101-1.094,0.101h-1.457V16.061
			h2.286v-0.86h-8.745v0.86h2.252v23.785h-2.252v0.861h8.745v-0.861h-2.286V27.788h1.69c0.729,0,1.291,0.165,1.689,0.463
			c0.396,0.332,0.695,0.729,0.895,1.26c0.232,0.53,0.363,1.16,0.43,1.821c0.1,0.662,0.166,1.392,0.199,2.121
			c0.1,1.457,0.232,2.682,0.363,3.643c0.133,0.961,0.299,1.724,0.564,2.287c0.232,0.563,0.564,0.96,0.994,1.191
			c0.396,0.265,0.959,0.397,1.656,0.464c0.264,0.033,0.529,0.033,0.793,0c0.268-0.066,0.664-0.165,1.16-0.331
			c0.092-0.029,0.176-0.087,0.266-0.128v0.128h6.195v-0.861c-0.664-0.066-1.193-0.166-1.59-0.331
			c-0.398-0.132-0.664-0.497-0.861-1.061c-0.066-0.265-0.1-0.529-0.1-0.762c0.033-0.265,0.066-0.53,0.1-0.795
			c0.131-0.794,0.23-1.292,0.264-1.524c0.033-0.198,0.066-0.331,0.1-0.43l0.432-1.657h5.664l1.756,6.56h-2.221v0.861h8.248v-0.861
			h-1.621L168.443,14.901z M163.045,32.426l2.748-10.601l2.684,10.601H163.045z"/>
		<path fill="#1A1A1A" d="M121.438,35.672c-0.432,1.093-0.895,1.954-1.458,2.617c-0.531,0.663-1.093,1.126-1.689,1.424
			c-0.563,0.299-1.126,0.464-1.624,0.464c-0.464,0-0.927-0.165-1.391-0.464c-0.497-0.298-0.928-0.827-1.325-1.557
			c-0.398-0.761-0.696-1.788-0.961-3.048c-0.232-1.258-0.364-2.881-0.364-4.869l0.033-5.334c0-0.597,0.033-1.39,0.066-2.417
			c0-1.027,0.132-2.055,0.364-3.047c0.232-0.996,0.629-1.855,1.192-2.585c0.563-0.729,1.358-1.092,2.451-1.092
			c1.226,0,2.353,0.662,3.313,2.019c0.959,1.359,1.656,3.246,2.021,5.632h0.761v-8.214h-0.994c-0.099,0.331-0.231,0.529-0.43,0.629
			c-0.231,0.098-0.398,0.165-0.531,0.165s-0.23,0-0.331-0.032c-0.066-0.034-0.198-0.066-0.331-0.132
			c-0.498-0.199-1.027-0.398-1.624-0.629c-0.597-0.199-1.259-0.299-1.955-0.299c-1.325,0-2.517,0.398-3.578,1.159
			c-1.093,0.796-2.021,1.789-2.75,3.016c-0.761,1.258-1.358,2.617-1.755,4.141c-0.431,1.523-0.629,3.015-0.629,4.505
			c0,1.557,0.199,3.113,0.596,4.67c0.397,1.591,0.994,3.016,1.756,4.308c0.762,1.259,1.689,2.318,2.815,3.113
			c1.093,0.828,2.352,1.226,3.776,1.226c0.597,0,1.027-0.066,1.392-0.199c0.365-0.132,0.63-0.265,0.861-0.397
			c0.331-0.165,0.63-0.298,0.895-0.464c0.298-0.165,0.596-0.231,0.86-0.231c0.232,0,0.432,0.066,0.63,0.166
			c0.198,0.132,0.397,0.396,0.563,0.795h0.96l0.231-9.01h-0.961C122.134,33.255,121.835,34.612,121.438,35.672z"/>
		<polygon fill="#1A1A1A" points="97.753,16.061 99.674,16.061 99.674,26.827 93.313,26.827 93.313,16.061 95.235,16.061 
			95.235,15.201 86.854,15.201 86.854,16.061 89.107,16.061 89.107,39.846 86.854,39.846 86.854,40.707 95.235,40.707 
			95.235,39.846 93.313,39.846 93.313,27.689 99.674,27.689 99.674,39.846 97.753,39.846 97.753,40.707 106.133,40.707 
			106.133,39.846 103.881,39.846 103.881,16.061 106.133,16.061 106.133,15.201 97.753,15.201 		"/>
		<path fill="#1A1A1A" d="M138.033,28.053c-0.728-0.596-1.557-1.094-2.517-1.424c-0.993-0.299-2.055-0.464-3.245-0.464h-1.16V16.061
			h2.285v-0.86h-8.778v0.86h2.318v23.785h-2.318v0.861h8.116c0.728,0,1.557-0.066,2.451-0.198c0.86-0.133,1.689-0.465,2.451-0.994
			c0.762-0.497,1.357-1.226,1.855-2.154c0.496-0.927,0.762-2.186,0.762-3.81c0-1.191-0.199-2.251-0.598-3.18
			C139.259,29.445,138.73,28.683,138.033,28.053z M135.484,34.943c0,0.961-0.067,1.756-0.199,2.386
			c-0.133,0.629-0.332,1.125-0.629,1.49c-0.266,0.397-0.631,0.662-1.061,0.794c-0.431,0.166-0.928,0.232-1.492,0.232h-0.992v-12.82
			h1.16c0.661,0,1.19,0.101,1.622,0.331c0.397,0.2,0.728,0.53,0.96,0.929c0.232,0.431,0.398,0.927,0.498,1.557
			c0.099,0.596,0.133,1.292,0.133,2.086V34.943z"/>
	</g>
</g>
</svg>
