<?xml version="1.0" encoding="utf-8"?>
<!-- Generator: Adobe Illustrator 19.0.0, SVG Export Plug-In . SVG Version: 6.00 Build 0)  -->
<svg version="1.1" id="Layer_1" xmlns="http://www.w3.org/2000/svg" xmlns:xlink="http://www.w3.org/1999/xlink" x="0px" y="0px"
	 viewBox="0 0 66.3 55.5" style="enable-background:new 0 0 66.3 55.5;" xml:space="preserve">
<style type="text/css">
	.st0{fill:#ed6c7e;}
</style>
<g id="XMLID_66_">
	<path id="XMLID_135_" class="st0" d="M63.8,45.7c-0.5-2.8-2.9-5-5.9-5h-8c-2.6-7.6-5.3-14.5-6.9-18c-0.4-0.9-1.2-1.5-2.2-1.6
		c-5.8-0.6-14.6-6-14.6-12c0-4.4-1.8-7.4-4.6-7.4c-1.5,0-2.9,1.2-4.6,2.9C15.4,6.4,5,17.2,4.9,17.3c-0.2,0.2-0.2,0.5,0,0.7
		l34.8,34.6c0.1,0.1,0.2,0.1,0.4,0.1h23.3c0.3,0,0.5-0.2,0.5-0.5v-5.5v0L63.8,45.7L63.8,45.7z M17.8,5.4c1.5-1.5,2.7-2.6,3.9-2.6
		c2.5,0,3.6,3.2,3.6,6.4c0,6.5,9.4,12.4,15.6,13c0.6,0.1,1.2,0.4,1.4,1c0.2,0.5,0.5,1.2,0.8,1.8l-14.7,5.3c-0.3,0.1-0.4,0.4-0.3,0.6
		c0.1,0.2,0.3,0.3,0.5,0.3c0.1,0,0.1,0,0.2,0l14.7-5.3c0.5,1.3,1.1,2.8,1.8,4.5c-0.1-0.1-0.3-0.1-0.4-0.1l-12.3,4.1
		c-0.3,0.1-0.4,0.4-0.3,0.6c0.1,0.2,0.3,0.3,0.5,0.3c0.1,0,0.1,0,0.2,0L45,31.2c0.2-0.1,0.3-0.2,0.3-0.4c0.5,1.2,0.9,2.4,1.4,3.8
		c0,0,0,0,0,0l-10.2,3.8c-0.3,0.1-0.4,0.4-0.3,0.6c0.1,0.2,0.3,0.3,0.5,0.3c0.1,0,0.1,0,0.2,0L47,35.6c0,0,0,0,0,0
		c0.7,1.9,1.4,3.8,2.1,5.9c0.1,0.2,0.3,0.3,0.5,0.3h8.3c2.4,0,4.4,1.7,4.9,4H42.3L9.9,13.6C13,10.3,16.8,6.3,17.8,5.4z M62.9,51.7
		H40.3L6,17.7c0.6-0.6,1.8-1.9,3.2-3.4l32.6,32.3l0.1,0.1h21V51.7z"/>
	<path id="XMLID_134_" class="st0" d="M3.9,33.7h5c0.3,0,0.5-0.2,0.5-0.5s-0.2-0.5-0.5-0.5h-5c-0.3,0-0.5,0.2-0.5,0.5
		S3.6,33.7,3.9,33.7z"/>
	<path id="XMLID_73_" class="st0" d="M3.9,38.7h11c0.3,0,0.5-0.2,0.5-0.5s-0.2-0.5-0.5-0.5h-11c-0.3,0-0.5,0.2-0.5,0.5
		S3.6,38.7,3.9,38.7z"/>
	<path id="XMLID_67_" class="st0" d="M19.9,42.7h-16c-0.3,0-0.5,0.2-0.5,0.5s0.2,0.5,0.5,0.5h16c0.3,0,0.5-0.2,0.5-0.5
		S20.2,42.7,19.9,42.7z"/>
</g>
</svg>
