<?xml version="1.0" encoding="utf-8"?>
<!-- Generator: Adobe Illustrator 19.0.0, SVG Export Plug-In . SVG Version: 6.00 Build 0)  -->
<svg version="1.1" id="Layer_1" xmlns="http://www.w3.org/2000/svg" xmlns:xlink="http://www.w3.org/1999/xlink" x="0px" y="0px"
	 viewBox="0 0 23.1 21.2" style="enable-background:new 0 0 23.1 21.2;" xml:space="preserve">
<style type="text/css">
	.st0{fill:#fff;}
</style>
<g id="XMLID_66_">
	<path id="XMLID_67_" class="st0" d="M11.6,7.1c-1.7,0-3,1.3-3,3s1.3,3,3,3s3-1.3,3-3S13.2,7.1,11.6,7.1z M11.6,12.1
		c-1.1,0-2-0.9-2-2s0.9-2,2-2s2,0.9,2,2S12.7,12.1,11.6,12.1z"/>
	<path id="XMLID_88_" class="st0" d="M21.6,9.7c-0.1-0.2-2.2-5.5-10.2-5.5c-7.8,0-10,5.9-10,6l0,0.2l0,0.3c0.1,0.2,2.2,5.5,10.2,5.5
		c7.8,0,10-5.9,10-6l0-0.2L21.6,9.7z M11.7,15.1c-6.6,0-8.8-3.9-9.2-4.7c0.3-0.8,2.5-5.2,9-5.2c6.6,0,8.8,3.9,9.2,4.7
		C20.3,10.7,18.2,15.1,11.7,15.1z"/>
</g>
</svg>
