<?xml version="1.0" encoding="utf-8"?>
<!-- Generator: Adobe Illustrator 19.0.0, SVG Export Plug-In . SVG Version: 6.00 Build 0)  -->
<svg version="1.1" id="Layer_1" xmlns="http://www.w3.org/2000/svg" xmlns:xlink="http://www.w3.org/1999/xlink" x="0px" y="0px"
	 viewBox="0 0 240 50"  xml:space="preserve" preserveAspectRatio="xMidYMid slice">
<style type="text/css">
	.st0{fill:#FFFFFF;}
</style>
<g>
	<path class="st0" d="M151.4,18.4c0,1.6,1.4,2.3,2.8,2.3h5.3v-4.5h-5.3C152.7,16.2,151.4,16.9,151.4,18.4z"/>
	<path class="st0" d="M0.1,0v45.8h176.1V0H0.1z M41.7,37.2l-6.4-10.1l-0.7,1v9.1h-8.7v-9.1l-0.7-1l-6.4,10.1H8.1l11.3-15.3L8.6,8.6
		h10.6l6.6,9.5V8.6h8.7v9.5l6.6-9.5h10.6L40.9,21.9l11.3,15.3H41.7z M83,37.2h-8.7V21L63.8,37.2h-8.4V8.6h8.7v15.3L74,8.6h9V37.2z
		 M111.7,16.1h-7.6v21h-8.7V16.2h-7.7V8.6h24C111.7,8.6,111.7,16.1,111.7,16.1z M139,16.1h-7.6v21h-8.8V16.2H115V8.6h24V16.1z
		 M168.3,37.2h-8.7v-9h-3.1l-3.9,9h-10l5.2-10.1c-2.3-1.1-5.1-3.7-5.1-8.7c0-5.4,3.6-9.8,10.3-9.8h15.3V37.2z"/>
</g>
</svg>
