<?xml version="1.0" encoding="utf-8"?>
<!-- Generator: Adobe Illustrator 19.0.0, SVG Export Plug-In . SVG Version: 6.00 Build 0)  -->
<svg version="1.1" id="Layer_1" xmlns="http://www.w3.org/2000/svg" xmlns:xlink="http://www.w3.org/1999/xlink" x="0px" y="0px"
	 viewBox="-229.7 374.2 176.1 45.8" style="enable-background:new -229.7 374.2 176.1 45.8;" xml:space="preserve">
<g>
	<path d="M-78.4,392.6c0,1.6,1.4,2.3,2.8,2.3h5.3v-4.5h-5.3C-77.1,390.4-78.4,391.1-78.4,392.6z"/>
	<path d="M-229.7,374.2V420h176.1v-45.8H-229.7z M-188.1,411.4l-6.4-10.1l-0.7,1v9.1h-8.7v-9.1l-0.7-1l-6.4,10.1h-10.7l11.3-15.3
		l-10.8-13.3h10.6l6.6,9.5v-9.5h8.7v9.5l6.6-9.5h10.6l-10.8,13.3l11.3,15.3H-188.1z M-146.8,411.4h-8.7v-16.2l-10.5,16.2h-8.4v-28.6
		h8.7v15.3l9.9-15.3h9V411.4z M-118.1,390.3h-7.6v21h-8.7v-20.9h-7.7v-7.6h24V390.3z M-90.8,390.3h-7.6v21h-8.8v-20.9h-7.6v-7.6h24
		V390.3z M-61.5,411.4h-8.7v-9h-3.1l-3.9,9h-10l5.2-10.1c-2.3-1.1-5.1-3.7-5.1-8.7c0-5.4,3.6-9.8,10.3-9.8h15.3V411.4z"/>
</g>
<style type="text/css">
	{fill:#fff;}
</style>
</svg>
